<?xml version="1.0" standalone="no"?>
<!DOCTYPE svg PUBLIC "-//W3C//DTD SVG 20010904//EN"
 "http://www.w3.org/TR/2001/REC-SVG-20010904/DTD/svg10.dtd">
<svg version="1.0" xmlns="http://www.w3.org/2000/svg"
 width="420.000000pt" height="420.000000pt" viewBox="0 0 420.000000 420.000000"
 preserveAspectRatio="xMidYMid meet">
<metadata>
Created by potrace 1.11, written by Peter Selinger 2001-2013
</metadata>
<g transform="translate(0.000000,420.000000) scale(0.100000,-0.100000)"
fill="#000000" stroke="none">
<path d="M1029 3628 c-4 -12 -3 -3022 2 -3029 3 -5 465 -8 1134 -7 l1130 3 0
172 c0 145 -2 172 -15 175 -8 2 -424 3 -925 3 -500 -1 -916 0 -923 3 -9 3 -9
8 -2 17 5 6 7 14 5 17 -7 7 -6 990 0 996 3 3 381 5 840 5 l835 0 0 176 0 177
-837 -1 -838 0 0 470 0 470 895 0 895 0 0 175 0 175 -1097 3 c-604 1 -1098 1
-1099 0z"/>
</g>
</svg>
